<svg xmlns="http://www.w3.org/2000/svg" width="219" height="27" fill="none"><path fill="currentColor" d="M12.382 16.246h1.255v-6.57h-1.255c-1.816 0-.892 1.96-2.708 1.96H6.637V3.074h5.448c1.948 0 .957 3.465 2.905 3.465h1.288V.294c-.594.066-1.453.098-2.344.098H0V1.7c0 .784.231 1.111.858 1.47.595.36.76.654.76 1.439v17.717c0 .784-.165 1.078-.76 1.438-.627.36-.858.686-.858 1.47v1.308h8.552v-1.307c0-.785-.264-1.111-1.024-1.471-.726-.36-.891-.654-.891-1.438v-8.042h3.037c1.816 0 .892 1.962 2.708 1.962ZM22.845 27c4.392 0 7.363-3.17 7.363-7.878 0-4.74-3.004-7.91-7.363-7.91-4.358 0-7.33 3.17-7.33 7.91 0 4.707 2.939 7.878 7.33 7.878Zm-2.344-7.878c0-3.89.792-5.72 2.344-5.72 1.585 0 2.345 1.83 2.345 5.72 0 3.89-.76 5.655-2.345 5.655-1.552 0-2.344-1.765-2.344-5.655ZM31.659 26.542h7.693v-1.144c0-.62-.198-.915-.793-1.242-.56-.294-.759-.62-.759-1.242v-2.06c0-3.366.76-5.654 2.08-6.537.033 1.275.859 2.256 2.245 2.256 1.486 0 2.279-1.014 2.279-2.42 0-1.666-1.156-2.941-2.972-2.941-2.476 0-4.457 2.451-4.986 6.276-.132 0-.198-.033-.198-.196 0-.229.033-.883.1-1.537l.263-4.478-4.985.393v1.144c0 1.667 1.353.85 1.353 2.484v7.616c0 .621-.165.948-.66 1.242-.495.327-.66.621-.66 1.242v1.144ZM55.324 26.673l5.052-.13-.033-1.145c-.034-.653-.199-.948-.727-1.242-.462-.261-.627-.588-.627-1.21V0l-6.142.392v1.144c0 1.667 1.52.85 1.52 2.485v8.139c-.86-.589-1.949-.948-3.204-.948-3.863 0-6.438 3.236-6.438 8.041 0 4.642 2.443 7.747 6.042 7.747 1.882 0 3.467-.915 4.326-2.32l.23 1.993Zm-5.514-7.518c0-3.302.99-5.328 2.608-5.328 1.09 0 1.981.915 1.981 1.961v6.701c0 1.046-.891 1.961-1.98 1.961-1.619 0-2.61-1.96-2.61-5.295ZM79.521 16.246h1.255v-6.57H79.52c-1.816 0-.891 1.96-2.707 1.96h-3.038V3.074h5.448c1.948 0 .958 3.465 2.906 3.465h1.287V.294c-.594.066-1.453.098-2.344.098H67.14V1.7c0 .784.232 1.111.859 1.47.594.36.76.654.76 1.439v17.717c0 .784-.166 1.078-.76 1.438-.627.36-.859.686-.859 1.47v1.308h8.552v-1.307c0-.785-.264-1.111-1.023-1.471-.727-.36-.892-.654-.892-1.438v-8.042h3.038c1.816 0 .891 1.962 2.707 1.962ZM89.985 27c4.391 0 7.363-3.17 7.363-7.878 0-4.74-3.005-7.91-7.363-7.91-4.359 0-7.33 3.17-7.33 7.91 0 4.707 2.938 7.878 7.33 7.878Zm-2.345-7.878c0-3.89.793-5.72 2.345-5.72 1.585 0 2.344 1.83 2.344 5.72 0 3.89-.76 5.655-2.344 5.655-1.552 0-2.345-1.765-2.345-5.655ZM104.439 27c2.048 0 3.698-1.013 4.623-2.452l-.066 2.158 4.028-.13 1.618-.034-.033-1.176c0-.621-.198-.916-.693-1.21-.496-.261-.661-.588-.661-1.21V11.278l-6.075.393v1.144c0 1.667 1.288.85 1.288 2.484V21.9c0 1.373-.991 2.124-2.081 2.124-1.023 0-1.749-.588-1.749-2.059V11.277l-6.142.393v1.144c0 1.667 1.354.85 1.354 2.484v7.093c0 3.53 2.443 4.609 4.589 4.609ZM116.321 26.542h7.033v-1.144c0-.62-.099-.915-.463-1.242-.33-.294-.429-.62-.429-1.242v-6.57c0-1.308.892-2.19 2.146-2.19 1.123 0 1.75.752 1.75 2.092v6.668c0 .621-.099.948-.429 1.242-.363.327-.462.621-.462 1.242v1.144h7.033v-1.144c0-.62-.165-.915-.694-1.242-.462-.294-.627-.62-.627-1.242v-7.06c0-3.008-1.915-4.642-4.622-4.642-2.048 0-3.798.948-4.755 2.484l.066-2.419-5.58.393v1.144c0 1.667 1.354.85 1.354 2.484v7.616c0 .621-.166.948-.661 1.242-.495.327-.66.621-.66 1.242v1.144ZM144.339 26.673l5.052-.13-.033-1.145c-.033-.653-.198-.948-.727-1.242-.462-.261-.627-.588-.627-1.21V0l-6.141.392v1.144c0 1.667 1.518.85 1.518 2.485v8.139c-.858-.589-1.948-.948-3.202-.948-3.864 0-6.439 3.236-6.439 8.041 0 4.642 2.443 7.747 6.042 7.747 1.882 0 3.467-.915 4.326-2.32l.231 1.993Zm-5.514-7.518c0-3.302.99-5.328 2.608-5.328 1.09 0 1.981.915 1.981 1.961v6.701c0 1.046-.891 1.961-1.981 1.961-1.618 0-2.608-1.96-2.608-5.295ZM159.795 26.673l5.283-.13-.033-1.145c-.033-.653-.198-.915-.694-1.242-.495-.261-.66-.588-.66-1.21v-5.785c0-3.824-2.344-5.95-6.637-5.95-3.533 0-6.075 1.44-6.075 3.466 0 1.111.759 2.125 2.146 2.125s2.146-1.014 2.146-2.256c0-.36-.066-.686-.198-1.046.462-.13.925-.229 1.354-.229 1.651 0 2.443 1.112 2.443 3.661v.458c-4.952.098-7.99 2.223-7.99 5.557 0 2.484 1.717 4.053 4.259 4.053 2.047 0 3.632-1.013 4.491-2.68l.165 2.353Zm-4.061-4.282c0-1.602 1.221-2.713 3.301-2.844v1.929c0 1.438-.924 2.55-1.981 2.55-.792 0-1.32-.622-1.32-1.635ZM171.954 27c1.783 0 3.368-.654 4.655-1.765l-1.023-2.027c-.661.262-1.288.425-1.849.425-.826 0-1.486-.392-1.486-1.863v-7.91h3.401v-2.19h-3.401V5.654l-2.344.327c-1.321.196-1.717.556-1.717 1.634v2.06c0 2.059-2.246.947-2.246 3.007v1.177h1.519v8.433c0 3.138 1.849 4.707 4.491 4.707ZM177.868 26.542h7.429v-1.144c0-.62-.165-.915-.661-1.242-.462-.294-.627-.62-.627-1.242V11.277l-6.174.393v1.144c0 1.667 1.353.85 1.353 2.484v7.616c0 .621-.165.948-.66 1.242-.495.327-.66.621-.66 1.242v1.144Zm.858-21.214c0 1.438 1.024 2.419 2.477 2.419 1.419 0 2.443-.98 2.443-2.419 0-1.405-1.024-2.419-2.443-2.419-1.453 0-2.477 1.014-2.477 2.42ZM194.008 27c4.391 0 7.363-3.17 7.363-7.878 0-4.74-3.005-7.91-7.363-7.91-4.359 0-7.33 3.17-7.33 7.91 0 4.707 2.938 7.878 7.33 7.878Zm-2.345-7.878c0-3.89.793-5.72 2.345-5.72 1.585 0 2.344 1.83 2.344 5.72 0 3.89-.759 5.655-2.344 5.655-1.552 0-2.345-1.765-2.345-5.655ZM202.821 26.542h7.033v-1.144c0-.62-.099-.915-.462-1.242-.331-.294-.43-.62-.43-1.242v-6.57c0-1.308.892-2.19 2.147-2.19 1.122 0 1.75.752 1.75 2.092v6.668c0 .621-.099.948-.43 1.242-.363.327-.462.621-.462 1.242v1.144H219v-1.144c0-.62-.165-.915-.693-1.242-.463-.294-.628-.62-.628-1.242v-7.06c0-3.008-1.915-4.642-4.622-4.642-2.047 0-3.797.948-4.755 2.484l.066-2.419-5.58.393v1.144c0 1.667 1.354.85 1.354 2.484v7.616c0 .621-.165.948-.661 1.242-.495.327-.66.621-.66 1.242v1.144Z"/></svg>
