<svg width="170" height="64" viewBox="0 0 170 64" fill="none" xmlns="http://www.w3.org/2000/svg">
<path d="M14.5883 18.5031H15.9863V11.0622H14.5883C12.5648 11.0622 13.5949 13.2834 11.5715 13.2834H8.18679V3.58431H14.2572C16.4278 3.58431 15.3241 7.50836 17.4947 7.50836H18.9295V0.437666C18.2673 0.511704 17.3107 0.548725 16.3174 0.548725H0.791992V2.0295C0.791992 2.91796 1.04952 3.28816 1.74853 3.69537C2.41076 4.10258 2.59471 4.43576 2.59471 5.32422V25.3887C2.59471 26.2772 2.41076 26.6103 1.74853 27.0176C1.04952 27.4248 0.791992 27.795 0.791992 28.6834V30.1642H10.3206V28.6834C10.3206 27.795 10.0263 27.4248 9.18013 27.0176C8.37075 26.6103 8.18679 26.2772 8.18679 25.3887V16.2819H11.5715C13.5949 16.2819 12.5648 18.5031 14.5883 18.5031Z" fill="#0F0F0F" />
<path d="M26.247 30.6825C31.1401 30.6825 34.4512 27.0916 34.4512 21.7608C34.4512 16.393 31.1033 12.8021 26.247 12.8021C21.3907 12.8021 18.0796 16.393 18.0796 21.7608C18.0796 27.0916 21.3539 30.6825 26.247 30.6825ZM23.6349 21.7608C23.6349 17.3555 24.5178 15.2824 26.247 15.2824C28.0129 15.2824 28.8591 17.3555 28.8591 21.7608C28.8591 26.1661 28.0129 28.1652 26.247 28.1652C24.5178 28.1652 23.6349 26.1661 23.6349 21.7608Z" fill="#0F0F0F" />
<path d="M36.067 30.1642H44.6391V28.8685C44.6391 28.1652 44.4184 27.832 43.7562 27.4618C43.1307 27.1286 42.91 26.7584 42.91 26.0551V23.7228C42.91 19.9098 43.7562 17.3185 45.2278 16.319C45.2646 17.7627 46.1843 18.8733 47.7295 18.8733C49.3851 18.8733 50.268 17.7257 50.268 16.1339C50.268 14.2459 48.9804 12.8021 46.9569 12.8021C44.1977 12.8021 41.9902 15.5786 41.4016 19.9098C41.2544 19.9098 41.1809 19.8728 41.1809 19.6877C41.1809 19.4286 41.2177 18.6882 41.2912 17.9478L41.5856 12.8762L36.0303 13.3204V14.6161C36.0303 16.5041 37.5387 15.5786 37.5387 17.4296V26.0551C37.5387 26.7584 37.3547 27.1286 36.8028 27.4618C36.251 27.832 36.067 28.1652 36.067 28.8685V30.1642Z" fill="#0F0F0F" />
<path d="M62.4355 30.3123L68.0643 30.1642L68.0275 28.8685C67.9908 28.1281 67.8068 27.795 67.2182 27.4618C66.7031 27.1656 66.5192 26.7954 66.5192 26.0921V0.104492L59.6762 0.548725V1.8444C59.6762 3.73239 61.3685 2.80691 61.3685 4.65787V13.8757C60.412 13.2093 59.1979 12.8021 57.7999 12.8021C53.4955 12.8021 50.6259 16.467 50.6259 21.9089C50.6259 27.1656 53.3483 30.6825 57.3584 30.6825C59.4555 30.6825 61.2214 29.6459 62.1779 28.0541L62.4355 30.3123ZM56.2915 21.7978C56.2915 18.0589 57.3952 15.7637 59.1979 15.7637C60.412 15.7637 61.4053 16.8002 61.4053 17.9848V25.5738C61.4053 26.7584 60.412 27.795 59.1979 27.795C57.3952 27.795 56.2915 25.5738 56.2915 21.7978Z" fill="#0F0F0F" />
<path d="M14.5883 51.8205H15.9863V44.3796H14.5883C12.5648 44.3796 13.5949 46.6008 11.5715 46.6008H8.18679V36.9017H14.2572C16.4278 36.9017 15.3241 40.8258 17.4947 40.8258H18.9295V33.7551C18.2673 33.8291 17.3107 33.8661 16.3174 33.8661H0.791992V35.3469C0.791992 36.2354 1.04952 36.6056 1.74853 37.0128C2.41076 37.42 2.59471 37.7532 2.59471 38.6416V58.7061C2.59471 59.5946 2.41076 59.9278 1.74853 60.335C1.04952 60.7422 0.791992 61.1124 0.791992 62.0009V63.4816H10.3206V62.0009C10.3206 61.1124 10.0263 60.7422 9.18013 60.335C8.37075 59.9278 8.18679 59.5946 8.18679 58.7061V49.5994H11.5715C13.5949 49.5994 12.5648 51.8205 14.5883 51.8205Z" fill="#0F0F0F" />
<path d="M26.247 63.9999C31.1401 63.9999 34.4512 60.409 34.4512 55.0782C34.4512 49.7104 31.1033 46.1195 26.247 46.1195C21.3907 46.1195 18.0796 49.7104 18.0796 55.0782C18.0796 60.409 21.3539 63.9999 26.247 63.9999ZM23.6349 55.0782C23.6349 50.6729 24.5178 48.5998 26.247 48.5998C28.0129 48.5998 28.8591 50.6729 28.8591 55.0782C28.8591 59.4835 28.0129 61.4826 26.247 61.4826C24.5178 61.4826 23.6349 59.4835 23.6349 55.0782Z" fill="#0F0F0F" />
<path d="M42.353 63.9999C44.634 63.9999 46.4735 62.8523 47.5036 61.2234L47.43 63.6667L51.9184 63.5186L53.7211 63.4816L53.6843 62.1489C53.6843 61.4456 53.4636 61.1124 52.9117 60.7792C52.3599 60.4831 52.1759 60.1129 52.1759 59.4095V46.1936L45.4065 46.6378V47.9335C45.4065 49.8215 46.8414 48.896 46.8414 50.747V58.2249C46.8414 59.7797 45.7377 60.6311 44.5236 60.6311C43.3831 60.6311 42.5737 59.9648 42.5737 58.2989V46.1936L35.7308 46.6378V47.9335C35.7308 49.8215 37.2392 48.896 37.2392 50.747V58.7802C37.2392 62.7783 39.9616 63.9999 42.353 63.9999Z" fill="#0F0F0F" />
<path d="M55.5916 63.4816H63.4279V62.1859C63.4279 61.4826 63.3176 61.1494 62.9129 60.7792C62.545 60.446 62.4346 60.0758 62.4346 59.3725V51.9316C62.4346 50.4508 63.4279 49.4513 64.826 49.4513C66.0768 49.4513 66.7758 50.3027 66.7758 51.8205V59.3725C66.7758 60.0758 66.6655 60.446 66.2976 60.7792C65.8929 61.1494 65.7825 61.4826 65.7825 62.1859V63.4816H73.6188V62.1859C73.6188 61.4826 73.4348 61.1494 72.8462 60.7792C72.3311 60.446 72.1472 60.0758 72.1472 59.3725V51.3763C72.1472 47.9705 70.0134 46.1195 66.9966 46.1195C64.7156 46.1195 62.7657 47.1931 61.6988 48.933L61.7724 46.1936L55.5549 46.6378V47.9335C55.5549 49.8215 57.0633 48.896 57.0633 50.747V59.3725C57.0633 60.0758 56.8793 60.446 56.3274 60.7792C55.7756 61.1494 55.5916 61.4826 55.5916 62.1859V63.4816Z" fill="#0F0F0F" />
<path d="M86.8103 63.6297L92.4392 63.4816L92.4024 62.1859C92.3656 61.4456 92.1817 61.1124 91.593 60.7792C91.078 60.4831 90.894 60.1129 90.894 59.4095V33.4219L84.0511 33.8661V35.1618C84.0511 37.0498 85.7434 36.1243 85.7434 37.9753V47.1931C84.7869 46.5268 83.5728 46.1195 82.1748 46.1195C77.8703 46.1195 75.0007 49.7845 75.0007 55.2263C75.0007 60.4831 77.7232 63.9999 81.7333 63.9999C83.8303 63.9999 85.5962 62.9634 86.5528 61.3715L86.8103 63.6297ZM80.6664 55.1152C80.6664 51.3763 81.7701 49.0811 83.5728 49.0811C84.7869 49.0811 85.7802 50.1176 85.7802 51.3023V58.8912C85.7802 60.0758 84.7869 61.1124 83.5728 61.1124C81.7701 61.1124 80.6664 58.8912 80.6664 55.1152Z" fill="#0F0F0F" />
<path d="M104.032 63.6297L109.918 63.4816L109.881 62.1859C109.845 61.4456 109.661 61.1494 109.109 60.7792C108.557 60.4831 108.373 60.1129 108.373 59.4095V52.8571C108.373 48.5258 105.761 46.1195 100.978 46.1195C97.0417 46.1195 94.2088 47.7484 94.2088 50.0436C94.2088 51.3023 95.055 52.4499 96.6002 52.4499C98.1454 52.4499 98.9916 51.3023 98.9916 49.8955C98.9916 49.4883 98.918 49.1181 98.7708 48.7109C99.2859 48.5628 99.8009 48.4518 100.279 48.4518C102.119 48.4518 103.002 49.7104 103.002 52.5979V53.1162C97.4832 53.2273 94.0985 55.6335 94.0985 59.4095C94.0985 62.223 96.0116 63.9999 98.8444 63.9999C101.125 63.9999 102.891 62.8523 103.848 60.9643L104.032 63.6297ZM99.5066 58.7802C99.5066 56.9662 100.868 55.7076 103.186 55.5595V57.7436C103.186 59.3725 102.156 60.6311 100.978 60.6311C100.095 60.6311 99.5066 59.9278 99.5066 58.7802Z" fill="#0F0F0F" />
<path d="M117.58 63.9999C119.566 63.9999 121.332 63.2595 122.767 62.0009L121.627 59.7056C120.891 60.0018 120.192 60.1869 119.566 60.1869C118.647 60.1869 117.911 59.7427 117.911 58.0768V49.1181H121.7V46.6378H117.911V39.8263L115.299 40.1964C113.827 40.4186 113.386 40.8258 113.386 42.0474V44.3796C113.386 46.7119 110.884 45.4532 110.884 47.7854V49.1181H112.576V58.6691C112.576 62.223 114.637 63.9999 117.58 63.9999Z" fill="#0F0F0F" />
<path d="M124.169 63.4816H132.447V62.1859C132.447 61.4826 132.263 61.1494 131.711 60.7792C131.196 60.446 131.012 60.0758 131.012 59.3725V46.1936L124.132 46.6378V47.9335C124.132 49.8215 125.641 48.896 125.641 50.747V59.3725C125.641 60.0758 125.457 60.446 124.905 60.7792C124.353 61.1494 124.169 61.4826 124.169 62.1859V63.4816ZM125.126 39.4561C125.126 41.0849 126.266 42.1955 127.885 42.1955C129.467 42.1955 130.607 41.0849 130.607 39.4561C130.607 37.8642 129.467 36.7166 127.885 36.7166C126.266 36.7166 125.126 37.8642 125.126 39.4561Z" fill="#0F0F0F" />
<path d="M142.153 63.9999C147.046 63.9999 150.357 60.409 150.357 55.0782C150.357 49.7104 147.009 46.1195 142.153 46.1195C137.297 46.1195 133.986 49.7104 133.986 55.0782C133.986 60.409 137.26 63.9999 142.153 63.9999ZM139.541 55.0782C139.541 50.6729 140.424 48.5998 142.153 48.5998C143.919 48.5998 144.765 50.6729 144.765 55.0782C144.765 59.4835 143.919 61.4826 142.153 61.4826C140.424 61.4826 139.541 59.4835 139.541 55.0782Z" fill="#0F0F0F" />
<path d="M151.973 63.4816H159.809V62.1859C159.809 61.4826 159.699 61.1494 159.294 60.7792C158.926 60.446 158.816 60.0758 158.816 59.3725V51.9316C158.816 50.4508 159.809 49.4513 161.207 49.4513C162.458 49.4513 163.157 50.3027 163.157 51.8205V59.3725C163.157 60.0758 163.047 60.446 162.679 60.7792C162.274 61.1494 162.164 61.4826 162.164 62.1859V63.4816H170V62.1859C170 61.4826 169.816 61.1494 169.228 60.7792C168.712 60.446 168.529 60.0758 168.529 59.3725V51.3763C168.529 47.9705 166.395 46.1195 163.378 46.1195C161.097 46.1195 159.147 47.1931 158.08 48.933L158.154 46.1936L151.936 46.6378V47.9335C151.936 49.8215 153.445 48.896 153.445 50.747V59.3725C153.445 60.0758 153.261 60.446 152.709 60.7792C152.157 61.1494 151.973 61.4826 151.973 62.1859V63.4816Z" fill="#0F0F0F" />
</svg>
